<svg xmlns="http://www.w3.org/2000/svg" shape-rendering="geometricPrecision" text-rendering="geometricPrecision" image-rendering="optimizeQuality" fill-rule="evenodd" clip-rule="evenodd" viewBox="0 0 512 350.651"><path d="M205.643 99.659c-60.187.414-89.746-3.856-107.572 45.288-4.112 11.338-7.185 22.857-7.96 34.329C-.019 214.733 14.3 192.723 0 292.233h24.825c11.466-89.391 124.109-78.55 127.565 0H284.346c1.703-15.809 8.832-29.962 19.468-40.598 12.289-12.288 29.273-19.882 47.977-19.882 18.678 0 35.602 7.602 47.893 19.863l.1.103c10.636 10.674 17.737 24.819 19.446 40.514h67.045c12.721 0 32.917-15.02 23.138-23.138l-75.066-62.33h-72.496v-52.644c-8.791 5.904-19.373 9.349-30.759 9.349a55.03 55.03 0 01-33.407-11.241v54.536h-92.042V99.659zm125.449-33.835c23.41 0 42.389 18.979 42.389 42.393 0 23.41-18.979 42.389-42.389 42.389-23.413 0-42.392-18.979-42.392-42.389 0-23.414 18.979-42.393 42.392-42.393zm0 23.55c10.405 0 18.84 8.435 18.84 18.843 0 10.404-8.435 18.839-18.84 18.839-10.408 0-18.843-8.435-18.843-18.839 0-10.408 8.435-18.843 18.843-18.843zm124.404.694h2.797V60.812l-71.962 46.132c-.333-14.75-6.451-28.081-16.17-37.8a55.275 55.275 0 00-20.693-13.053L487.836.255a3.277 3.277 0 014.287 1.753l11.216 26.709a3.276 3.276 0 01-1.253 4.019L475.297 49.91v40.158h4.026a2.04 2.04 0 012.037 2.037v18.276a2.04 2.04 0 01-2.037 2.036h-3.651v16.796c-3.306 1.886-6.379 3.992-9.116 6.412-5.656 5.006-13.794 13.645-11.802 21.599 2.673 10.68 19.832 15.411 26.983-4.557 1.456-4.067 1.726-5.317 4.437-9.013a33.794 33.794 0 013.282-3.867c1.511-1.65 3.875-1.153 4.74.639 1.219 2.545-1.251 4.537-2.031 7.093-2.184 7.138 1.011 14.278-3.04 24.286-5.943 14.678-23.608 19.498-37.425 13.864-13.361-5.451-22.043-19.327-20.204-33.807 1.776-13.984 13.873-24.569 25.87-30.801v-8.644h-1.87a2.04 2.04 0 01-2.037-2.036V92.105a2.04 2.04 0 012.037-2.037zM88.608 244.003c28.278 0 51.058 22.936 51.058 51.058 0 28.278-22.939 51.058-51.058 51.058-28.279 0-51.061-22.935-51.061-51.058 0-28.278 22.938-51.058 51.061-51.058zm0 31.421c10.838 0 19.637 8.796 19.637 19.637 0 10.841-8.799 19.638-19.637 19.638-10.841 0-19.638-8.797-19.638-19.638 0-10.841 8.797-19.637 19.638-19.637zm263.183-26.889c28.278 0 51.058 22.935 51.058 51.058 0 28.275-22.939 51.058-51.058 51.058-28.279 0-51.058-22.938-51.058-51.058 0-28.278 22.938-51.058 51.058-51.058zm0 31.417c10.841 0 19.637 8.8 19.637 19.641 0 10.841-8.796 19.635-19.637 19.635-10.842 0-19.638-8.794-19.638-19.635 0-10.841 8.796-19.641 19.638-19.641zM146.876 126.507l28.881-.473v53.242h-53.456c2.664-17.365 9.56-37.875 24.575-52.769z"/></svg>